<mxfile host="app.diagrams.net" modified="2023-03-25T11:49:26.659Z" agent="Mozilla/5.0 (Windows NT 10.0; Win64; x64) AppleWebKit/537.36 (KHTML, like Gecko) Chrome/111.0.0.0 Safari/537.36" etag="M50gk7smveGNplqKbV7J" version="21.1.0" type="github">
  <diagram name="Page-1" id="e3a06f82-3646-2815-327d-82caf3d4e204">
    <mxGraphModel dx="3439.5" dy="1499" grid="1" gridSize="10" guides="1" tooltips="1" connect="1" arrows="1" fold="1" page="1" pageScale="1.5" pageWidth="1169" pageHeight="826" background="none" math="0" shadow="0">
      <root>
        <mxCell id="0" style=";html=1;" />
        <mxCell id="1" style=";html=1;" parent="0" />
        <mxCell id="6a7d8f32e03d9370-59" value="home.qqey.net" style="whiteSpace=wrap;html=1;fontSize=14;verticalAlign=top;align=right;" parent="1" vertex="1">
          <mxGeometry x="300" y="104" width="1392" height="746" as="geometry" />
        </mxCell>
        <mxCell id="W58TvUlYRmvB2Ql1K81t-14" style="edgeStyle=orthogonalEdgeStyle;rounded=0;orthogonalLoop=1;jettySize=auto;html=1;exitX=1;exitY=0.5;exitDx=0;exitDy=0;entryX=0;entryY=0.5;entryDx=0;entryDy=0;endArrow=none;endFill=0;strokeWidth=4;strokeColor=#424242;" edge="1" parent="1" source="6a7d8f32e03d9370-57" target="W58TvUlYRmvB2Ql1K81t-12">
          <mxGeometry relative="1" as="geometry" />
        </mxCell>
        <mxCell id="6a7d8f32e03d9370-57" value="&lt;h2 style=&quot;&quot;&gt;&lt;span style=&quot;background-color: initial;&quot;&gt;&lt;font color=&quot;#333333&quot;&gt;&amp;nbsp;CTCX Chubu Telecommunications Company, Inc.&lt;/font&gt;&lt;/span&gt;&lt;/h2&gt;" style="whiteSpace=wrap;html=1;fillColor=#fff2cc;fontSize=14;strokeColor=#d6b656;verticalAlign=top;align=center;" parent="1" vertex="1">
          <mxGeometry x="-30" y="200" width="210" height="120" as="geometry" />
        </mxCell>
        <mxCell id="6a7d8f32e03d9370-62" value="home.qqey.net Network Architecture" style="text;strokeColor=none;fillColor=none;html=1;fontSize=24;fontStyle=1;verticalAlign=middle;align=center;" parent="1" vertex="1">
          <mxGeometry x="499" y="30" width="861" height="40" as="geometry" />
        </mxCell>
        <mxCell id="6a7d8f32e03d9370-61" value="&lt;div style=&quot;&quot;&gt;&lt;span style=&quot;background-color: initial;&quot;&gt;DMZ Networks(192.168.2.0/24)&lt;/span&gt;&lt;/div&gt;" style="whiteSpace=wrap;html=1;fillColor=#f8cecc;fontSize=14;strokeColor=none;verticalAlign=top;align=right;" parent="1" vertex="1">
          <mxGeometry x="1200" y="365" width="410" height="435" as="geometry" />
        </mxCell>
        <mxCell id="6a7d8f32e03d9370-58" value="Trust Network(192.168.1.0/24)" style="whiteSpace=wrap;html=1;fillColor=#dae8fc;fontSize=14;strokeColor=none;verticalAlign=top;align=right;" parent="1" vertex="1">
          <mxGeometry x="488" y="365" width="690" height="435" as="geometry" />
        </mxCell>
        <mxCell id="W58TvUlYRmvB2Ql1K81t-12" value="&lt;h2 style=&quot;border-color: var(--border-color);&quot;&gt;NEC AtermWH862A/O&lt;br&gt;(HGW)&lt;/h2&gt;&lt;div&gt;192.168.0.254&lt;/div&gt;&lt;div&gt;192.168.1.254&lt;/div&gt;" style="rounded=0;whiteSpace=wrap;html=1;gradientColor=none;" vertex="1" parent="1">
          <mxGeometry x="310" y="200" width="210" height="120" as="geometry" />
        </mxCell>
        <mxCell id="W58TvUlYRmvB2Ql1K81t-15" value="&lt;h2 style=&quot;border-color: var(--border-color);&quot;&gt;IX2215&lt;/h2&gt;&lt;div&gt;192.168.1.253&lt;/div&gt;" style="rounded=0;whiteSpace=wrap;html=1;gradientColor=none;" vertex="1" parent="1">
          <mxGeometry x="687" y="200" width="210" height="120" as="geometry" />
        </mxCell>
        <mxCell id="W58TvUlYRmvB2Ql1K81t-16" style="edgeStyle=orthogonalEdgeStyle;rounded=0;orthogonalLoop=1;jettySize=auto;html=1;entryX=0;entryY=0.5;entryDx=0;entryDy=0;endArrow=none;endFill=0;strokeWidth=4;strokeColor=#424242;" edge="1" parent="1" source="W58TvUlYRmvB2Ql1K81t-19" target="W58TvUlYRmvB2Ql1K81t-15">
          <mxGeometry relative="1" as="geometry">
            <mxPoint x="530" y="260" as="sourcePoint" />
            <mxPoint x="320" y="270" as="targetPoint" />
          </mxGeometry>
        </mxCell>
        <mxCell id="W58TvUlYRmvB2Ql1K81t-18" value="&lt;h2 style=&quot;border-color: var(--border-color);&quot;&gt;300Mbps&lt;/h2&gt;" style="rounded=0;whiteSpace=wrap;html=1;gradientColor=none;" vertex="1" parent="1">
          <mxGeometry x="208" y="244" width="80" height="30" as="geometry" />
        </mxCell>
        <mxCell id="W58TvUlYRmvB2Ql1K81t-20" value="" style="edgeStyle=orthogonalEdgeStyle;rounded=0;orthogonalLoop=1;jettySize=auto;html=1;entryX=0;entryY=0.5;entryDx=0;entryDy=0;endArrow=none;endFill=0;strokeWidth=4;strokeColor=#424242;exitX=1;exitY=0.5;exitDx=0;exitDy=0;" edge="1" parent="1" source="W58TvUlYRmvB2Ql1K81t-19" target="W58TvUlYRmvB2Ql1K81t-19">
          <mxGeometry relative="1" as="geometry">
            <mxPoint x="520" y="260" as="sourcePoint" />
            <mxPoint x="620" y="260" as="targetPoint" />
          </mxGeometry>
        </mxCell>
        <mxCell id="W58TvUlYRmvB2Ql1K81t-19" value="GE 0" style="rounded=0;whiteSpace=wrap;html=1;horizontal=0;" vertex="1" parent="1">
          <mxGeometry x="520" y="230" width="20" height="60" as="geometry" />
        </mxCell>
        <mxCell id="W58TvUlYRmvB2Ql1K81t-21" value="GE&amp;nbsp;0" style="rounded=0;whiteSpace=wrap;html=1;horizontal=0;" vertex="1" parent="1">
          <mxGeometry x="667" y="230" width="20" height="60" as="geometry" />
        </mxCell>
        <mxCell id="W58TvUlYRmvB2Ql1K81t-23" value="GE2/0" style="rounded=0;whiteSpace=wrap;html=1;horizontal=0;rotation=90;" vertex="1" parent="1">
          <mxGeometry x="707" y="300" width="20" height="60" as="geometry" />
        </mxCell>
        <mxCell id="W58TvUlYRmvB2Ql1K81t-25" value="&lt;span style=&quot;font-size: 12px;&quot;&gt;PPPoE&lt;/span&gt;" style="text;strokeColor=none;fillColor=none;html=1;fontSize=24;fontStyle=1;verticalAlign=middle;align=center;" vertex="1" parent="1">
          <mxGeometry x="203" y="210" width="90" height="40" as="geometry" />
        </mxCell>
        <mxCell id="W58TvUlYRmvB2Ql1K81t-26" value="&lt;span style=&quot;font-size: 12px;&quot;&gt;PPPoEパススルー&lt;/span&gt;" style="text;strokeColor=none;fillColor=none;html=1;fontSize=24;fontStyle=1;verticalAlign=middle;align=center;" vertex="1" parent="1">
          <mxGeometry x="560" y="220" width="90" height="40" as="geometry" />
        </mxCell>
        <mxCell id="W58TvUlYRmvB2Ql1K81t-27" value="&lt;h2 style=&quot;border-color: var(--border-color);&quot;&gt;AP&lt;/h2&gt;" style="rounded=0;whiteSpace=wrap;html=1;gradientColor=none;" vertex="1" parent="1">
          <mxGeometry x="662" y="400" width="110" height="60" as="geometry" />
        </mxCell>
        <mxCell id="W58TvUlYRmvB2Ql1K81t-28" style="edgeStyle=orthogonalEdgeStyle;rounded=0;orthogonalLoop=1;jettySize=auto;html=1;endArrow=none;endFill=0;strokeWidth=4;strokeColor=#424242;exitX=1;exitY=0.5;exitDx=0;exitDy=0;" edge="1" parent="1" source="W58TvUlYRmvB2Ql1K81t-23" target="W58TvUlYRmvB2Ql1K81t-27">
          <mxGeometry relative="1" as="geometry">
            <mxPoint x="480" y="390" as="sourcePoint" />
            <mxPoint x="627" y="390" as="targetPoint" />
          </mxGeometry>
        </mxCell>
        <mxCell id="W58TvUlYRmvB2Ql1K81t-31" value="&lt;h2 style=&quot;border-color: var(--border-color);&quot;&gt;RE230&lt;/h2&gt;&lt;div&gt;192.168.1.252&lt;/div&gt;" style="rounded=0;whiteSpace=wrap;html=1;gradientColor=none;" vertex="1" parent="1">
          <mxGeometry x="665.5" y="540" width="103" height="70" as="geometry" />
        </mxCell>
        <mxCell id="W58TvUlYRmvB2Ql1K81t-32" style="edgeStyle=orthogonalEdgeStyle;rounded=0;orthogonalLoop=1;jettySize=auto;html=1;endArrow=none;endFill=0;strokeWidth=4;strokeColor=#424242;exitX=0.5;exitY=1;exitDx=0;exitDy=0;entryX=0.5;entryY=0;entryDx=0;entryDy=0;dashed=1;dashPattern=1 1;" edge="1" parent="1" source="W58TvUlYRmvB2Ql1K81t-27" target="W58TvUlYRmvB2Ql1K81t-31">
          <mxGeometry relative="1" as="geometry">
            <mxPoint x="727" y="350" as="sourcePoint" />
            <mxPoint x="727" y="410" as="targetPoint" />
          </mxGeometry>
        </mxCell>
        <mxCell id="W58TvUlYRmvB2Ql1K81t-33" value="&lt;h2 style=&quot;border-color: var(--border-color);&quot;&gt;IX2215(L2 SW)&lt;/h2&gt;" style="rounded=0;whiteSpace=wrap;html=1;gradientColor=none;" vertex="1" parent="1">
          <mxGeometry x="843" y="515" width="210" height="120" as="geometry" />
        </mxCell>
        <mxCell id="W58TvUlYRmvB2Ql1K81t-35" value="GE2/0" style="rounded=0;whiteSpace=wrap;html=1;horizontal=0;" vertex="1" parent="1">
          <mxGeometry x="823" y="545" width="20" height="60" as="geometry" />
        </mxCell>
        <mxCell id="W58TvUlYRmvB2Ql1K81t-36" style="edgeStyle=orthogonalEdgeStyle;rounded=0;orthogonalLoop=1;jettySize=auto;html=1;endArrow=none;endFill=0;strokeWidth=4;strokeColor=#424242;exitX=1;exitY=0.5;exitDx=0;exitDy=0;entryX=0;entryY=0.5;entryDx=0;entryDy=0;" edge="1" parent="1" source="W58TvUlYRmvB2Ql1K81t-31" target="W58TvUlYRmvB2Ql1K81t-35">
          <mxGeometry relative="1" as="geometry">
            <mxPoint x="727" y="350" as="sourcePoint" />
            <mxPoint x="727" y="410" as="targetPoint" />
          </mxGeometry>
        </mxCell>
        <mxCell id="W58TvUlYRmvB2Ql1K81t-37" value="GE2/1" style="rounded=0;whiteSpace=wrap;html=1;horizontal=0;" vertex="1" parent="1">
          <mxGeometry x="897" y="229" width="20" height="60" as="geometry" />
        </mxCell>
        <mxCell id="W58TvUlYRmvB2Ql1K81t-38" value="&lt;h2 style=&quot;border-color: var(--border-color);&quot;&gt;AP&lt;/h2&gt;" style="rounded=0;whiteSpace=wrap;html=1;gradientColor=none;" vertex="1" parent="1">
          <mxGeometry x="1230" y="400" width="110" height="60" as="geometry" />
        </mxCell>
        <mxCell id="W58TvUlYRmvB2Ql1K81t-39" style="edgeStyle=orthogonalEdgeStyle;rounded=0;orthogonalLoop=1;jettySize=auto;html=1;endArrow=none;endFill=0;strokeWidth=4;strokeColor=#424242;exitX=1;exitY=0.5;exitDx=0;exitDy=0;" edge="1" parent="1" target="W58TvUlYRmvB2Ql1K81t-38" source="W58TvUlYRmvB2Ql1K81t-37">
          <mxGeometry relative="1" as="geometry">
            <mxPoint x="1231.5" y="340" as="sourcePoint" />
            <mxPoint x="1141.5" y="390" as="targetPoint" />
          </mxGeometry>
        </mxCell>
        <mxCell id="W58TvUlYRmvB2Ql1K81t-41" value="&lt;h2 style=&quot;border-color: var(--border-color);&quot;&gt;DeskMini&lt;/h2&gt;&lt;div&gt;192.168.2.1&lt;/div&gt;" style="rounded=0;whiteSpace=wrap;html=1;gradientColor=none;" vertex="1" parent="1">
          <mxGeometry x="1230" y="535" width="110" height="80" as="geometry" />
        </mxCell>
        <mxCell id="W58TvUlYRmvB2Ql1K81t-43" style="edgeStyle=orthogonalEdgeStyle;rounded=0;orthogonalLoop=1;jettySize=auto;html=1;endArrow=none;endFill=0;strokeWidth=4;strokeColor=#424242;exitX=0.5;exitY=1;exitDx=0;exitDy=0;entryX=0.5;entryY=0;entryDx=0;entryDy=0;dashed=1;dashPattern=1 1;" edge="1" parent="1" source="W58TvUlYRmvB2Ql1K81t-38" target="W58TvUlYRmvB2Ql1K81t-41">
          <mxGeometry relative="1" as="geometry">
            <mxPoint x="794" y="471" as="sourcePoint" />
            <mxPoint x="794" y="551" as="targetPoint" />
          </mxGeometry>
        </mxCell>
        <mxCell id="W58TvUlYRmvB2Ql1K81t-44" value="&lt;h2 style=&quot;border-color: var(--border-color);&quot;&gt;Printer&lt;/h2&gt;&lt;div&gt;192.168.1.2&lt;/div&gt;" style="rounded=0;whiteSpace=wrap;html=1;gradientColor=none;" vertex="1" parent="1">
          <mxGeometry x="499" y="390" width="110" height="80" as="geometry" />
        </mxCell>
        <mxCell id="W58TvUlYRmvB2Ql1K81t-45" style="edgeStyle=orthogonalEdgeStyle;rounded=0;orthogonalLoop=1;jettySize=auto;html=1;endArrow=none;endFill=0;strokeWidth=4;strokeColor=#424242;" edge="1" parent="1" source="W58TvUlYRmvB2Ql1K81t-44">
          <mxGeometry relative="1" as="geometry">
            <mxPoint x="727" y="350" as="sourcePoint" />
            <mxPoint x="660" y="430" as="targetPoint" />
          </mxGeometry>
        </mxCell>
        <mxCell id="W58TvUlYRmvB2Ql1K81t-48" value="&lt;h2 style=&quot;border-color: var(--border-color);&quot;&gt;IoT&lt;/h2&gt;" style="rounded=0;whiteSpace=wrap;html=1;gradientColor=none;" vertex="1" parent="1">
          <mxGeometry x="1370" y="535" width="110" height="80" as="geometry" />
        </mxCell>
        <mxCell id="W58TvUlYRmvB2Ql1K81t-50" style="edgeStyle=orthogonalEdgeStyle;rounded=0;orthogonalLoop=1;jettySize=auto;html=1;endArrow=none;endFill=0;strokeWidth=4;strokeColor=#424242;exitX=1;exitY=1;exitDx=0;exitDy=0;entryX=0.5;entryY=0;entryDx=0;entryDy=0;dashed=1;dashPattern=1 1;" edge="1" parent="1" source="W58TvUlYRmvB2Ql1K81t-38" target="W58TvUlYRmvB2Ql1K81t-48">
          <mxGeometry relative="1" as="geometry">
            <mxPoint x="1295" y="470" as="sourcePoint" />
            <mxPoint x="1295" y="525" as="targetPoint" />
          </mxGeometry>
        </mxCell>
        <mxCell id="W58TvUlYRmvB2Ql1K81t-56" style="edgeStyle=orthogonalEdgeStyle;rounded=0;orthogonalLoop=1;jettySize=auto;html=1;endArrow=none;endFill=0;strokeWidth=4;strokeColor=#424242;entryX=1;entryY=0.5;entryDx=0;entryDy=0;exitX=0;exitY=0.5;exitDx=0;exitDy=0;" edge="1" parent="1" target="W58TvUlYRmvB2Ql1K81t-33">
          <mxGeometry relative="1" as="geometry">
            <mxPoint x="1053" y="575" as="sourcePoint" />
            <mxPoint x="670" y="440" as="targetPoint" />
          </mxGeometry>
        </mxCell>
      </root>
    </mxGraphModel>
  </diagram>
</mxfile>
